# xmcd
#
# Track frame offsets:
#	150
#	16825
#	33587
#	45825
#	62187
#	78362
#	94575
#	115175
#	131312
#	143175
#	158937
#
# Disc length: 2370 seconds
#
# Revision: 1
# Processed by: cddbd v1.5.1PL0 Copyright (c) Steve Scherf et al.
# Submitted via: EasyCDDAExtractor 7.0.5.4
#
DISCID=8209400b
DTITLE=Nashville Shooters - Favourite Line Dancin'
DYEAR=1900
DGENRE=Country
TTITLE0=I Feel Lucky
TTITLE1=No One Else On Earth
TTITLE2=Wild One
TTITLE3=He Thinks He'll Keep Her
TTITLE4=Piece Of My Heart
TTITLE5=Walking Away A Winner
TTITLE6=How Can I Help You Say Goodbye
TTITLE7=Why Haven't I Heard From You
TTITLE8=My Baby Loves Me
TTITLE9=Blame It On Your Heart
TTITLE10=When You Say Nothing At All
EXTD=
EXTT0=
EXTT1=
EXTT2=
EXTT3=
EXTT4=
EXTT5=
EXTT6=
EXTT7=
EXTT8=
EXTT9=
EXTT10=
PLAYORDER=
